<svg width="3561" height="2493" viewBox="0 0 3561 2493" fill="none" xmlns="http://www.w3.org/2000/svg">
<mask id="path-1-inside-1_107_12" fill="white">
<path d="M315.979 0H924.19C1042.4 0 1101.5 0 1157.14 17.3506C1212.77 34.7012 1261.66 68.3799 1359.44 135.737L2266.8 760.824C2347.51 816.431 2387.87 844.234 2410.09 826.837C2432.3 809.44 2415.97 762.824 2383.3 669.591L2148.66 0L2989.83 730.58C3084.07 812.434 3131.2 853.361 3163.08 906.101C3194.97 958.842 3209.56 1019.99 3238.73 1142.28L3561 2493H2662.53C2477.72 2493 2385.32 2493 2305.19 2453.53C2225.06 2414.06 2167.95 2340.41 2053.72 2193.11L1228.8 1129.32C1036.46 881.291 940.297 757.278 910.621 776.852C880.946 796.425 1621.86 2214.21 1767.55 2493H616.744C302.39 2493 145.213 2493 58.2986 2390.4C-28.6161 2287.8 -4.88797 2130.27 42.5682 1815.2L315.979 0Z"/>
</mask>
<path d="M3238.73 1142.28C3238.73 1142.28 3238.73 1142.28 3238.73 1142.28C3298.89 1397.87 3359.09 1653.45 3419.33 1909.02C3465.28 2103.98 3511.25 2298.94 3557.25 2493.9L3561 2489.14C3261.51 2488.39 2962.02 2487.69 2662.53 2487.04C2542.87 2483.75 2416.42 2498.34 2308.15 2447.51C2201.52 2391.74 2135.69 2282.07 2059.59 2188.56C1785.28 1833.44 1510.88 1478.4 1236.39 1123.43C1187.08 1059.72 1138.12 996.105 1087.85 932.951C1062.77 901.543 1037.33 870.082 1010.63 839.626C997.212 824.406 983.623 809.468 968.536 795.146C960.965 788.035 953.232 781.157 944.087 774.895C939.572 771.859 934.574 768.817 928.533 766.657C922.649 764.552 913.321 762.835 904.994 768.32C1146.56 1381.88 1467.63 1926.05 1757.13 2498.45L1767.55 2481.24C1396.23 2481.08 1024.9 2481 653.572 2481C641.296 2481 629.02 2481 616.744 2481C428.96 2471.05 203.516 2518.32 67.3981 2382.69C-44.7158 2224.14 35.7618 2006.62 54.1537 1816.94C145.007 1211.84 235.646 606.694 326.07 1.51986L315.979 10.2043C518.716 9.96535 721.453 9.70256 924.19 9.41592C1002.01 10.5455 1081.75 4.31676 1154.44 26.0129C1226.9 49.3723 1289.42 99.7448 1354.5 142.909C1657.28 350.789 1960.11 558.604 2262.99 766.355C2285.64 781.844 2308.09 797.494 2331.55 812.156C2343.34 819.428 2355.29 826.54 2368.54 832.168C2381.08 837.258 2399.11 843.401 2414.02 831.859C2428.78 819.988 2427.29 801.155 2425.6 787.59C2423.54 773.251 2419.72 759.757 2415.71 746.375C2407.54 719.699 2398.16 693.733 2388.98 667.597C2310.29 444.569 2231.57 221.55 2152.82 -1.45698L2145.77 3.32628C2353.32 182.709 2560.9 362.059 2768.51 541.377C2841.96 604.817 2915.41 668.254 2988.87 731.686C3050.16 786.494 3118.45 836.207 3162.44 906.488C3204.85 978.289 3217.91 1062.28 3238.73 1142.28C3238.73 1142.28 3238.73 1142.28 3238.73 1142.28C3218.38 1062.14 3205.91 978.172 3163.72 905.715C3119.85 834.751 3051.75 784.634 2990.79 729.473C2917.7 665.623 2844.6 601.776 2771.5 537.934C2564.88 357.481 2358.23 177.061 2151.55 -3.32628L2139 -14.2089L2144.5 1.45698C2222.17 224.843 2299.87 448.219 2377.61 671.584C2386.67 697.743 2395.93 723.747 2403.83 749.951C2410.48 774.691 2422.11 807.701 2406.15 821.815C2388.89 833.741 2360.29 813.911 2338.48 801.043C2315.56 786.592 2293.19 770.865 2270.61 755.293C1968.57 546.319 1666.5 337.41 1364.38 128.565C1299.27 85.2569 1237.55 34.2981 1159.84 8.68824C1081.66 -14.6097 1002.1 -7.91387 924.19 -9.41592C721.453 -9.70256 518.716 -9.96535 315.979 -10.2043L307.185 -10.1939L305.889 -1.51986C214.039 603.439 122.403 1208.43 30.9828 1813.45C14.181 2004.34 -74.3818 2216.57 49.1992 2398.11C206.209 2549.11 428.107 2493.07 616.744 2505C629.02 2505 641.296 2505 653.572 2505C1024.9 2505 1396.23 2504.92 1767.55 2504.76L1786.97 2504.75L1777.97 2487.55C1485.63 1924.11 1174.1 1343.15 916.249 785.383C1024.14 855.882 1122.33 1015.47 1221.2 1135.21C1496.66 1489.43 1772.21 1843.58 2047.85 2197.66C2124.58 2290.81 2189.71 2400.73 2302.22 2459.55C2416.82 2512.25 2542.71 2495.91 2662.53 2498.96C2962.02 2498.31 3261.51 2497.61 3561 2496.86L3565.9 2496.85L3564.75 2492.1C3517.78 2297.38 3470.78 2102.67 3423.76 1907.96C3362.12 1652.73 3300.45 1397.5 3238.73 1142.28Z" fill="url(#paint0_linear_107_12)" mask="url(#path-1-inside-1_107_12)"/>
<defs>
<linearGradient id="paint0_linear_107_12" x1="1780.5" y1="0" x2="1780.5" y2="2493" gradientUnits="userSpaceOnUse">
<stop stop-color="#EB7900"/>
<stop offset="1" stop-color="#854400"/>
</linearGradient>
</defs>
</svg>
