<svg width="3209" height="2923" viewBox="0 0 3209 2923" fill="none" xmlns="http://www.w3.org/2000/svg">
<path d="M-914.482 0H-141.623C8.58738 0 83.6924 0 154.389 22.0484C225.085 44.0968 287.206 86.8943 411.449 172.489L1564.44 966.823C1667.01 1037.49 1718.29 1072.82 1746.52 1050.71C1774.75 1028.6 1753.99 969.364 1712.48 850.888L1414.32 0L2483.21 928.39C2602.97 1032.41 2662.84 1084.42 2703.36 1151.44C2743.88 1218.46 2762.42 1296.16 2799.49 1451.56L3209 3168H2067.3C1832.47 3168 1715.05 3168 1613.23 3117.84C1511.4 3067.69 1438.83 2974.09 1293.69 2786.91L245.445 1435.09C1.0448 1119.91 -121.155 962.318 -158.864 987.19C-196.572 1012.06 744.915 2813.73 930.046 3168H-532.297C-931.75 3168 -1131.48 3168 -1241.92 3037.62C-1352.36 2907.24 -1322.21 2707.05 -1261.91 2306.68L-914.482 0Z" fill="#64748B"/>
</svg>
