<svg width="904" height="624" viewBox="0 0 904 624" fill="none" xmlns="http://www.w3.org/2000/svg">
<path d="M80.2149 0H234.616C264.625 0 279.629 0 293.753 4.34286C307.876 8.68573 320.287 17.1155 345.108 33.9752L575.452 190.435C595.943 204.353 606.188 211.312 611.828 206.958C617.467 202.604 613.32 190.935 605.027 167.599L545.461 0L759.002 182.865C782.927 203.353 794.89 213.597 802.984 226.798C811.079 239.999 814.782 255.304 822.189 285.914L904 624H675.913C628.997 624 605.539 624 585.198 614.121C564.856 604.241 550.358 585.806 521.36 548.937L311.944 282.669C263.118 220.588 238.705 189.547 231.172 194.447C223.638 199.346 242.131 234.236 279.116 304.018L448.713 624H156.567C76.7652 624 36.864 624 14.7998 598.319C-7.26451 572.638 -1.24087 533.207 10.8064 454.346L80.2149 0Z" fill="url(#paint0_linear_24_6)"/>
<defs>
<linearGradient id="paint0_linear_24_6" x1="1421" y1="-653.704" x2="-83.2925" y2="416.274" gradientUnits="userSpaceOnUse">
<stop stop-color="#F5BC00"/>
<stop offset="1" stop-color="#E73A1E"/>
</linearGradient>
</defs>
</svg>
